<?xml version="1.0" encoding="UTF-8"?>
<svg id="Layer_4" data-name="Layer 4" xmlns="http://www.w3.org/2000/svg" viewBox="0 0 1000 1000">
  <defs>
    <style>
      .cls-1 {
        fill: #6049ea;
      }
    </style>
  </defs>
  <circle class="cls-1" cx="55.56" cy="55.56" r="37.5"/>
  <circle class="cls-1" cx="166.67" cy="55.56" r="37.5"/>
  <circle class="cls-1" cx="277.78" cy="55.56" r="37.5"/>
  <circle class="cls-1" cx="388.89" cy="55.56" r="37.5"/>
  <circle class="cls-1" cx="500" cy="55.56" r="37.5"/>
  <circle class="cls-1" cx="611.11" cy="55.56" r="37.5"/>
  <circle class="cls-1" cx="722.22" cy="55.56" r="37.5"/>
  <circle class="cls-1" cx="833.33" cy="55.56" r="37.5"/>
  <circle class="cls-1" cx="944.44" cy="55.56" r="37.5"/>
  <circle class="cls-1" cx="55.56" cy="166.67" r="37.5"/>
  <circle class="cls-1" cx="166.67" cy="166.67" r="37.5"/>
  <circle class="cls-1" cx="277.78" cy="166.67" r="37.5"/>
  <circle class="cls-1" cx="388.89" cy="166.67" r="37.5"/>
  <circle class="cls-1" cx="500" cy="166.67" r="37.5"/>
  <circle class="cls-1" cx="611.11" cy="166.67" r="37.5"/>
  <circle class="cls-1" cx="722.22" cy="166.67" r="37.5"/>
  <circle class="cls-1" cx="833.33" cy="166.67" r="37.5"/>
  <circle class="cls-1" cx="944.44" cy="166.67" r="37.5"/>
  <circle class="cls-1" cx="55.56" cy="277.78" r="37.5"/>
  <circle class="cls-1" cx="166.67" cy="277.78" r="37.5"/>
  <circle class="cls-1" cx="277.78" cy="277.78" r="37.5"/>
  <circle class="cls-1" cx="388.89" cy="277.78" r="37.5"/>
  <circle class="cls-1" cx="500" cy="277.78" r="37.5"/>
  <circle class="cls-1" cx="611.11" cy="277.78" r="37.5"/>
  <circle class="cls-1" cx="722.22" cy="277.78" r="37.5"/>
  <circle class="cls-1" cx="833.33" cy="277.78" r="37.5"/>
  <circle class="cls-1" cx="944.44" cy="277.78" r="37.5"/>
  <circle class="cls-1" cx="55.56" cy="388.89" r="37.5"/>
  <circle class="cls-1" cx="166.67" cy="388.89" r="37.5"/>
  <circle class="cls-1" cx="277.78" cy="388.89" r="37.5"/>
  <circle class="cls-1" cx="388.89" cy="388.89" r="37.5"/>
  <circle class="cls-1" cx="500" cy="388.89" r="37.5"/>
  <circle class="cls-1" cx="611.11" cy="388.89" r="37.5"/>
  <circle class="cls-1" cx="722.22" cy="388.89" r="37.5"/>
  <circle class="cls-1" cx="833.33" cy="388.89" r="37.5"/>
  <circle class="cls-1" cx="944.44" cy="388.89" r="37.5"/>
  <circle class="cls-1" cx="55.56" cy="500" r="37.5"/>
  <circle class="cls-1" cx="166.67" cy="500" r="37.5"/>
  <circle class="cls-1" cx="277.78" cy="500" r="37.5"/>
  <circle class="cls-1" cx="388.89" cy="500" r="37.5"/>
  <circle class="cls-1" cx="500" cy="500" r="37.5"/>
  <circle class="cls-1" cx="611.11" cy="500" r="37.5"/>
  <circle class="cls-1" cx="722.22" cy="500" r="37.5"/>
  <circle class="cls-1" cx="833.33" cy="500" r="37.5"/>
  <circle class="cls-1" cx="944.44" cy="500" r="37.5"/>
  <circle class="cls-1" cx="55.56" cy="611.11" r="37.5"/>
  <circle class="cls-1" cx="166.67" cy="611.11" r="37.5"/>
  <circle class="cls-1" cx="277.78" cy="611.11" r="37.5"/>
  <circle class="cls-1" cx="388.89" cy="611.11" r="37.5"/>
  <circle class="cls-1" cx="500" cy="611.11" r="37.5"/>
  <circle class="cls-1" cx="611.11" cy="611.11" r="37.5"/>
  <circle class="cls-1" cx="722.22" cy="611.11" r="37.5"/>
  <circle class="cls-1" cx="833.33" cy="611.11" r="37.5"/>
  <circle class="cls-1" cx="944.44" cy="611.11" r="37.5"/>
  <circle class="cls-1" cx="55.56" cy="722.22" r="37.5"/>
  <circle class="cls-1" cx="166.67" cy="722.22" r="37.5"/>
  <circle class="cls-1" cx="277.78" cy="722.22" r="37.5"/>
  <circle class="cls-1" cx="388.89" cy="722.22" r="37.5"/>
  <circle class="cls-1" cx="500" cy="722.22" r="37.5"/>
  <circle class="cls-1" cx="611.11" cy="722.22" r="37.5"/>
  <circle class="cls-1" cx="722.22" cy="722.22" r="37.5"/>
  <circle class="cls-1" cx="833.33" cy="722.22" r="37.5"/>
  <circle class="cls-1" cx="944.44" cy="722.22" r="37.5"/>
  <circle class="cls-1" cx="55.56" cy="833.33" r="37.5"/>
  <circle class="cls-1" cx="166.67" cy="833.33" r="37.5"/>
  <circle class="cls-1" cx="277.78" cy="833.33" r="37.5"/>
  <circle class="cls-1" cx="388.89" cy="833.33" r="37.5"/>
  <circle class="cls-1" cx="500" cy="833.33" r="37.5"/>
  <circle class="cls-1" cx="611.11" cy="833.33" r="37.5"/>
  <circle class="cls-1" cx="722.22" cy="833.33" r="37.5"/>
  <circle class="cls-1" cx="833.33" cy="833.33" r="37.5"/>
  <circle class="cls-1" cx="944.44" cy="833.33" r="37.5"/>
  <circle class="cls-1" cx="55.56" cy="944.44" r="37.5"/>
  <circle class="cls-1" cx="166.67" cy="944.44" r="37.5"/>
  <circle class="cls-1" cx="277.78" cy="944.44" r="37.5"/>
  <circle class="cls-1" cx="388.89" cy="944.44" r="37.5"/>
  <circle class="cls-1" cx="500" cy="944.44" r="37.5"/>
  <circle class="cls-1" cx="611.11" cy="944.44" r="37.5"/>
  <circle class="cls-1" cx="722.22" cy="944.44" r="37.5"/>
  <circle class="cls-1" cx="833.33" cy="944.44" r="37.5"/>
  <circle class="cls-1" cx="944.44" cy="944.44" r="37.5"/>
</svg>