<?xml version="1.0" encoding="UTF-8"?>
<svg id="Layer_4" data-name="Layer 4" xmlns="http://www.w3.org/2000/svg" viewBox="0 0 1000 584.11">
  <defs>
    <style>
      .cls-1 {
        fill: #2e4759;
      }
    </style>
  </defs>
  <g id="Logo_Mark" data-name="Logo Mark">
    <path id="Path_2" data-name="Path 2" class="cls-1" d="M616.02,0c-7.34,46.31-11.33,43,27.28,32.72-1.06,27.71,27.63,30.26,39.69,46.81,14.55,19.69,19.38,44.23,43.51,54.88,90.76,55.24-25.82-14.05-56.94,47.33,13.38-163.69-71.25,50.51-33.97-89.81-137.69,56.42,101.68-58.63-124.09,.63-38.39-14.82-57.17,29.09-84.82,47.12,52.2-72.1-124.14,47.05-153.03,79.04,28.87-49.85,54.26-81.74-17.89-20.03-7.38,13.05,5.73,18.9-12.85,24.7,.47-17.59-18.89-37.86,2.44-49.3,61.12-34.82,114.93-80.71,168.89-125.13,18.23,15.41,7.93,31.24,4.75,48.17,21.83,.43,36.68-7.52,44.87-27.75,63.44,40.83,100.59-51.7,152.17-69.37Z"/>
    <path class="cls-1" d="M111.23,441.54H54.94l-8.56,25.89H0l57.87-158.74h50.89l57.64,158.74h-46.61l-8.56-25.89Zm-11.03-33.77l-17.11-51.34-16.89,51.34h34Z"/>
    <path class="cls-1" d="M213,455.83c-11.86-8.78-18.24-21.35-19.14-37.71h47.06c.45,5.56,2.1,9.61,4.95,12.16,2.85,2.55,6.53,3.83,11.03,3.83,4.05,0,7.39-1.01,10.02-3.04,2.63-2.03,3.94-4.84,3.94-8.44,0-4.65-2.18-8.25-6.53-10.81-4.36-2.55-11.41-5.4-21.17-8.56-10.36-3.45-18.73-6.79-25.11-10.02-6.38-3.23-11.93-7.95-16.66-14.19-4.73-6.23-7.09-14.37-7.09-24.43s2.55-18.95,7.66-26.23c5.1-7.28,12.16-12.8,21.17-16.55,9.01-3.75,19.21-5.63,30.62-5.63,18.46,0,33.21,4.32,44.24,12.95,11.03,8.63,16.92,20.75,17.68,36.36h-47.96c-.15-4.8-1.61-8.4-4.39-10.81-2.78-2.4-6.34-3.6-10.7-3.6-3.3,0-6.01,.98-8.11,2.93-2.1,1.95-3.15,4.73-3.15,8.33,0,3,1.16,5.59,3.49,7.77,2.33,2.18,5.21,4.05,8.67,5.63,3.45,1.58,8.56,3.57,15.31,5.97,10.06,3.45,18.35,6.87,24.88,10.24,6.53,3.38,12.16,8.11,16.89,14.19,4.73,6.08,7.09,13.77,7.09,23.08s-2.36,17.94-7.09,25.44c-4.73,7.51-11.56,13.44-20.49,17.79-8.93,4.36-19.48,6.53-31.63,6.53-18.46,0-33.63-4.39-45.48-13.17Z"/>
    <path class="cls-1" d="M360.37,345.95c6.53-12.23,15.8-21.76,27.81-28.6,12.01-6.83,25.82-10.24,41.43-10.24,19.81,0,36.48,5.29,49.99,15.87,13.51,10.58,22.21,24.96,26.12,43.12h-47.51c-2.85-6-6.79-10.58-11.82-13.74-5.03-3.15-10.85-4.73-17.45-4.73-10.21,0-18.35,3.64-24.43,10.92-6.08,7.28-9.12,17-9.12,29.16s3.04,22.1,9.12,29.38c6.08,7.28,14.22,10.92,24.43,10.92,6.6,0,12.42-1.58,17.45-4.73,5.03-3.15,8.97-7.73,11.82-13.73h47.51c-3.9,18.16-12.61,32.54-26.12,43.12-13.51,10.58-30.17,15.87-49.99,15.87-15.61,0-29.42-3.41-41.43-10.25-12.01-6.83-21.28-16.36-27.81-28.6-6.53-12.23-9.79-26.23-9.79-41.99s3.27-29.53,9.79-41.77Z"/>
    <path class="cls-1" d="M588.57,344.04v25.89h50.66v33.55h-50.66v28.6h57.42v35.35h-101.55v-158.74h101.55v35.35h-57.42Z"/>
    <path class="cls-1" d="M832.64,467.43h-44.13l-58.77-88.71v88.71h-44.13v-158.74h44.13l58.77,89.84v-89.84h44.13v158.74Z"/>
    <path class="cls-1" d="M995.21,308.69v35.13h-42.33v123.61h-44.13v-123.61h-41.88v-35.13h128.34Z"/>
    <path class="cls-1" d="M47.48,544.39c-4.52,4.37-11.41,6.55-20.67,6.55H11.54v33.15H1.18v-79.39H26.81c8.96,0,15.78,2.16,20.45,6.49,4.67,4.33,7.01,9.91,7.01,16.74s-2.26,12.09-6.78,16.46Zm-7.92-5.75c2.73-2.51,4.1-6.07,4.1-10.71,0-9.8-5.62-14.69-16.86-14.69H11.54v29.16h15.26c5.77,0,10.02-1.25,12.76-3.76Z"/>
    <path class="cls-1" d="M139.69,504.7v79.39h-10.37v-35.99h-40.44v35.99h-10.37v-79.39h10.37v34.86h40.44v-34.86h10.37Z"/>
    <path class="cls-1" d="M224.32,504.7l-25.86,49.43v29.96h-10.37v-29.96l-25.97-49.43h11.5l19.59,40.21,19.59-40.21h11.5Z"/>
    <path class="cls-1" d="M257.75,582.1c-4.14-1.86-7.39-4.44-9.74-7.75-2.35-3.3-3.57-7.12-3.64-11.45h11.05c.38,3.72,1.92,6.85,4.61,9.4,2.69,2.55,6.62,3.82,11.79,3.82s8.83-1.23,11.68-3.7c2.85-2.47,4.27-5.64,4.27-9.51,0-3.04-.84-5.5-2.51-7.4-1.67-1.9-3.76-3.34-6.27-4.33-2.51-.99-5.89-2.05-10.14-3.19-5.24-1.37-9.44-2.73-12.59-4.1-3.15-1.37-5.85-3.51-8.09-6.44-2.24-2.92-3.36-6.85-3.36-11.79,0-4.33,1.1-8.16,3.3-11.5,2.2-3.34,5.3-5.92,9.28-7.75,3.99-1.82,8.56-2.73,13.73-2.73,7.44,0,13.54,1.86,18.28,5.58,4.74,3.72,7.42,8.66,8.03,14.81h-11.39c-.38-3.04-1.98-5.71-4.78-8.03-2.81-2.32-6.53-3.47-11.16-3.47-4.33,0-7.86,1.12-10.59,3.36-2.73,2.24-4.1,5.37-4.1,9.4,0,2.89,.82,5.24,2.45,7.06,1.63,1.82,3.65,3.21,6.04,4.16,2.39,.95,5.75,2.03,10.08,3.25,5.24,1.44,9.45,2.87,12.64,4.27,3.19,1.41,5.92,3.57,8.2,6.49,2.28,2.92,3.42,6.89,3.42,11.9,0,3.87-1.03,7.52-3.08,10.93-2.05,3.42-5.09,6.19-9.11,8.32-4.03,2.13-8.77,3.19-14.24,3.19s-9.93-.93-14.07-2.79Z"/>
    <path class="cls-1" d="M335.26,504.7v79.39h-10.37v-79.39h10.37Z"/>
    <path class="cls-1" d="M380.14,579.7c-6.08-3.45-10.88-8.28-14.41-14.47-3.53-6.19-5.3-13.16-5.3-20.9s1.77-14.71,5.3-20.9c3.53-6.19,8.33-11.01,14.41-14.47,6.07-3.45,12.79-5.18,20.16-5.18s14.2,1.73,20.28,5.18c6.07,3.46,10.86,8.26,14.35,14.41,3.49,6.15,5.24,13.14,5.24,20.96s-1.75,14.81-5.24,20.96c-3.49,6.15-8.28,10.95-14.35,14.41-6.08,3.46-12.83,5.18-20.28,5.18s-14.09-1.73-20.16-5.18Zm35.14-7.69c4.44-2.58,7.93-6.27,10.48-11.05,2.54-4.78,3.82-10.33,3.82-16.63s-1.27-11.94-3.82-16.69c-2.55-4.74-6.02-8.41-10.42-10.99-4.4-2.58-9.42-3.87-15.04-3.87s-10.63,1.29-15.04,3.87c-4.4,2.58-7.88,6.25-10.42,10.99-2.55,4.75-3.82,10.31-3.82,16.69s1.27,11.85,3.82,16.63c2.54,4.78,6.04,8.47,10.48,11.05,4.44,2.58,9.43,3.87,14.98,3.87s10.54-1.29,14.98-3.87Z"/>
    <path class="cls-1" d="M514.09,504.7v8.43h-21.64v70.96h-10.37v-70.96h-21.76v-8.43h53.76Z"/>
    <path class="cls-1" d="M599.4,504.7v79.39h-10.37v-35.99h-40.44v35.99h-10.37v-79.39h10.37v34.86h40.44v-34.86h10.37Z"/>
    <path class="cls-1" d="M638.81,513.13v26.54h28.93v8.54h-28.93v27.34h32.35v8.54h-42.71v-79.51h42.71v8.54h-32.35Z"/>
    <path class="cls-1" d="M740.07,584.09l-18.91-32.46h-12.53v32.46h-10.37v-79.39h25.63c6,0,11.07,1.02,15.21,3.08,4.14,2.05,7.23,4.82,9.28,8.32,2.05,3.49,3.08,7.48,3.08,11.96,0,5.47-1.58,10.29-4.73,14.47-3.15,4.18-7.88,6.95-14.18,8.31l19.93,33.26h-12.41Zm-31.44-40.78h15.26c5.62,0,9.83-1.39,12.64-4.16,2.81-2.77,4.21-6.47,4.21-11.11s-1.39-8.35-4.16-10.93c-2.77-2.58-7-3.87-12.7-3.87h-15.26v30.07Z"/>
    <path class="cls-1" d="M825.84,566.43h-34.63l-6.38,17.66h-10.94l28.7-78.94h11.96l28.59,78.94h-10.94l-6.38-17.66Zm-2.96-8.43l-14.35-40.09-14.35,40.09h28.7Z"/>
    <path class="cls-1" d="M913.38,544.39c-4.52,4.37-11.41,6.55-20.67,6.55h-15.26v33.15h-10.37v-79.39h25.63c8.96,0,15.78,2.16,20.45,6.49,4.67,4.33,7.01,9.91,7.01,16.74s-2.26,12.09-6.78,16.46Zm-7.92-5.75c2.73-2.51,4.1-6.07,4.1-10.71,0-9.8-5.62-14.69-16.86-14.69h-15.26v29.16h15.26c5.77,0,10.02-1.25,12.76-3.76Z"/>
    <path class="cls-1" d="M1000,504.7l-25.86,49.43v29.96h-10.37v-29.96l-25.97-49.43h11.5l19.59,40.21,19.59-40.21h11.5Z"/>
  </g>
</svg>