<?xml version="1.0" encoding="UTF-8"?>
<svg id="Layer_4" data-name="Layer 4" xmlns="http://www.w3.org/2000/svg" xmlns:xlink="http://www.w3.org/1999/xlink" viewBox="0 0 1000 1000">
  <defs>
    <style>
      .cls-1 {
        fill: #6049ea;
      }

      .cls-2 {
        fill: #f47362;
      }

      .cls-3 {
        clip-path: url(#clippath-1);
      }

      .cls-4 {
        clip-path: url(#clippath);
      }

      .cls-5 {
        fill: none;
      }
    </style>
    <clipPath id="clippath">
      <rect class="cls-5" width="1000" height="1000"/>
    </clipPath>
    <clipPath id="clippath-1">
      <rect class="cls-5" y="1477.74" width="1000" height="1000"/>
    </clipPath>
  </defs>
  <g class="cls-4">
    <rect class="cls-1" x="-643.62" y="104.37" width="1727.49" height="160" transform="translate(-65.9 209.65) rotate(-45)"/>
    <rect class="cls-1" x="-786.87" y="-38.88" width="1727.49" height="160" transform="translate(-6.56 66.4) rotate(-45)"/>
    <rect class="cls-1" x="-495.13" y="252.86" width="1727.49" height="160" transform="translate(-127.41 358.14) rotate(-45)"/>
    <rect class="cls-1" x="-346.63" y="401.36" width="1727.49" height="160" transform="translate(-188.91 506.64) rotate(-45)"/>
    <rect class="cls-1" x="-198.14" y="549.85" width="1727.49" height="160" transform="translate(-250.42 655.13) rotate(-45)"/>
    <rect class="cls-1" x="-49.65" y="698.34" width="1727.49" height="160" transform="translate(-311.93 803.62) rotate(-45)"/>
    <rect class="cls-1" x="98.84" y="846.83" width="1727.49" height="160" transform="translate(-373.44 952.11) rotate(-45)"/>
  </g>
  <g class="cls-3">
    <rect class="cls-2" x="-643.62" y="1582.11" width="1727.49" height="160" transform="translate(-1110.82 642.47) rotate(-45)"/>
    <rect class="cls-2" x="-786.87" y="1438.86" width="1727.49" height="160" transform="translate(-1051.48 499.22) rotate(-45)"/>
  </g>
</svg>